<?xml version="1.0" encoding="UTF-8" standalone="no"?>
<!DOCTYPE svg PUBLIC "-//W3C//DTD SVG 1.1//EN" "http://www.w3.org/Graphics/SVG/1.1/DTD/svg11.dtd">
<svg width="100%" height="100%" viewBox="0 0 1024 1024" version="1.1" xmlns="http://www.w3.org/2000/svg" xmlns:xlink="http://www.w3.org/1999/xlink" xml:space="preserve" xmlns:serif="http://www.serif.com/" style="fill-rule:evenodd;clip-rule:evenodd;stroke-linejoin:round;stroke-miterlimit:2;">
    <g transform="matrix(2.22081,0,0,2.22081,-577.4,110.504)">
        <g transform="matrix(92.9729,0,0,92.9729,343.426,203.812)">
            <path d="M0.453,-0.44C0.448,-0.43 0.44,-0.417 0.431,-0.4C0.422,-0.383 0.412,-0.365 0.401,-0.344C0.389,-0.324 0.377,-0.302 0.363,-0.278C0.35,-0.254 0.336,-0.231 0.321,-0.207C0.307,-0.183 0.292,-0.16 0.277,-0.137C0.261,-0.114 0.247,-0.093 0.232,-0.073C0.268,-0.077 0.301,-0.086 0.334,-0.1C0.367,-0.114 0.397,-0.132 0.426,-0.154C0.454,-0.175 0.48,-0.199 0.504,-0.225C0.527,-0.252 0.547,-0.279 0.564,-0.308C0.581,-0.336 0.594,-0.365 0.603,-0.394C0.613,-0.422 0.617,-0.449 0.617,-0.475C0.617,-0.496 0.615,-0.516 0.609,-0.534C0.604,-0.552 0.596,-0.568 0.585,-0.582C0.574,-0.595 0.56,-0.605 0.543,-0.613C0.526,-0.62 0.506,-0.624 0.483,-0.624C0.462,-0.624 0.441,-0.622 0.42,-0.618C0.398,-0.614 0.378,-0.608 0.358,-0.602C0.339,-0.595 0.321,-0.587 0.304,-0.577C0.288,-0.568 0.274,-0.558 0.262,-0.547C0.249,-0.533 0.238,-0.519 0.228,-0.504C0.218,-0.49 0.208,-0.477 0.198,-0.466C0.189,-0.454 0.179,-0.445 0.167,-0.438C0.156,-0.431 0.143,-0.427 0.128,-0.427C0.1,-0.427 0.086,-0.44 0.086,-0.464C0.086,-0.48 0.091,-0.497 0.102,-0.515C0.112,-0.533 0.126,-0.551 0.144,-0.569C0.162,-0.586 0.183,-0.603 0.208,-0.62C0.233,-0.636 0.261,-0.651 0.291,-0.663C0.32,-0.676 0.352,-0.686 0.386,-0.693C0.42,-0.701 0.455,-0.705 0.491,-0.705C0.532,-0.705 0.569,-0.698 0.6,-0.686C0.631,-0.674 0.656,-0.657 0.677,-0.635C0.697,-0.613 0.712,-0.588 0.722,-0.559C0.732,-0.529 0.737,-0.498 0.737,-0.464C0.737,-0.43 0.731,-0.395 0.719,-0.357C0.708,-0.32 0.691,-0.284 0.669,-0.248C0.646,-0.212 0.619,-0.178 0.586,-0.146C0.553,-0.114 0.516,-0.085 0.473,-0.061C0.431,-0.037 0.384,-0.017 0.332,-0.003C0.281,0.011 0.225,0.019 0.165,0.019C0.152,0.019 0.142,0.014 0.134,0.006C0.127,-0.002 0.123,-0.012 0.123,-0.024C0.123,-0.034 0.125,-0.043 0.128,-0.052C0.131,-0.061 0.135,-0.069 0.141,-0.076L0.341,-0.475C0.351,-0.49 0.36,-0.501 0.369,-0.51C0.379,-0.519 0.387,-0.526 0.395,-0.531C0.403,-0.536 0.41,-0.539 0.417,-0.54C0.423,-0.542 0.427,-0.542 0.431,-0.542C0.445,-0.542 0.456,-0.538 0.462,-0.53C0.468,-0.521 0.471,-0.511 0.471,-0.5C0.471,-0.49 0.47,-0.48 0.466,-0.47C0.463,-0.459 0.459,-0.449 0.453,-0.44Z" style="fill:rgb(38,55,74);fill-rule:nonzero;"/>
        </g>
        <g transform="matrix(92.9729,0,0,92.9729,406.846,203.812)">
            <path d="M0.238,-0.269C0.223,-0.269 0.208,-0.265 0.194,-0.258C0.18,-0.25 0.167,-0.24 0.156,-0.227C0.146,-0.215 0.137,-0.201 0.13,-0.185C0.124,-0.169 0.121,-0.153 0.121,-0.136C0.121,-0.13 0.121,-0.123 0.122,-0.116C0.123,-0.109 0.125,-0.102 0.128,-0.095C0.131,-0.089 0.136,-0.084 0.142,-0.08C0.147,-0.075 0.155,-0.073 0.165,-0.073C0.18,-0.073 0.195,-0.077 0.209,-0.085C0.223,-0.093 0.236,-0.104 0.247,-0.116C0.258,-0.129 0.266,-0.144 0.273,-0.16C0.279,-0.176 0.283,-0.193 0.283,-0.209C0.283,-0.216 0.282,-0.223 0.281,-0.23C0.281,-0.237 0.279,-0.243 0.276,-0.249C0.273,-0.255 0.268,-0.26 0.262,-0.263C0.256,-0.267 0.248,-0.269 0.238,-0.269ZM0.264,-0.355C0.276,-0.355 0.289,-0.353 0.303,-0.35C0.318,-0.347 0.331,-0.341 0.343,-0.333C0.355,-0.326 0.365,-0.315 0.373,-0.302C0.381,-0.29 0.385,-0.274 0.385,-0.255C0.385,-0.245 0.383,-0.234 0.381,-0.221C0.378,-0.209 0.374,-0.196 0.369,-0.182C0.372,-0.178 0.376,-0.175 0.38,-0.174C0.385,-0.172 0.389,-0.171 0.394,-0.171C0.401,-0.171 0.408,-0.173 0.417,-0.177C0.425,-0.181 0.434,-0.186 0.442,-0.192C0.451,-0.199 0.46,-0.206 0.469,-0.213C0.478,-0.221 0.486,-0.229 0.494,-0.237C0.501,-0.245 0.509,-0.252 0.515,-0.259C0.521,-0.266 0.527,-0.272 0.531,-0.277C0.533,-0.279 0.536,-0.28 0.539,-0.28C0.544,-0.28 0.548,-0.278 0.551,-0.273C0.555,-0.268 0.557,-0.262 0.557,-0.253C0.557,-0.245 0.554,-0.235 0.549,-0.224C0.544,-0.213 0.535,-0.201 0.521,-0.189C0.513,-0.181 0.504,-0.171 0.494,-0.16C0.484,-0.149 0.473,-0.139 0.462,-0.129C0.451,-0.119 0.439,-0.111 0.426,-0.104C0.414,-0.097 0.402,-0.094 0.389,-0.094C0.381,-0.094 0.372,-0.095 0.365,-0.098C0.357,-0.1 0.348,-0.104 0.34,-0.11C0.329,-0.092 0.315,-0.076 0.3,-0.061C0.285,-0.046 0.269,-0.033 0.25,-0.022C0.232,-0.011 0.212,-0.003 0.191,0.003C0.169,0.009 0.147,0.012 0.123,0.012C0.113,0.012 0.103,0.01 0.091,0.007C0.079,0.003 0.067,-0.003 0.056,-0.011C0.045,-0.019 0.036,-0.03 0.029,-0.043C0.021,-0.057 0.018,-0.073 0.018,-0.092C0.018,-0.105 0.02,-0.121 0.024,-0.139C0.028,-0.157 0.035,-0.176 0.043,-0.196C0.052,-0.215 0.063,-0.234 0.076,-0.253C0.089,-0.272 0.105,-0.289 0.123,-0.304C0.141,-0.32 0.162,-0.332 0.186,-0.341C0.209,-0.35 0.235,-0.355 0.264,-0.355Z" style="fill:rgb(38,55,74);fill-rule:nonzero;"/>
        </g>
        <g transform="matrix(92.9729,0,0,92.9729,445.342,203.812)">
            <path d="M0.133,-0.141C0.13,-0.134 0.126,-0.125 0.123,-0.115C0.119,-0.105 0.118,-0.096 0.118,-0.088C0.118,-0.083 0.119,-0.08 0.121,-0.077C0.123,-0.074 0.126,-0.072 0.132,-0.072C0.139,-0.072 0.147,-0.074 0.157,-0.078C0.168,-0.082 0.179,-0.088 0.191,-0.094C0.203,-0.101 0.215,-0.109 0.228,-0.117C0.241,-0.126 0.253,-0.135 0.266,-0.144C0.279,-0.154 0.291,-0.163 0.302,-0.172C0.314,-0.181 0.324,-0.19 0.333,-0.198C0.336,-0.2 0.339,-0.202 0.343,-0.203C0.346,-0.204 0.349,-0.204 0.352,-0.204C0.359,-0.204 0.364,-0.202 0.368,-0.197C0.372,-0.193 0.375,-0.187 0.375,-0.179C0.375,-0.172 0.372,-0.165 0.368,-0.156C0.363,-0.148 0.355,-0.139 0.344,-0.131C0.323,-0.112 0.302,-0.094 0.281,-0.077C0.26,-0.059 0.239,-0.044 0.218,-0.031C0.197,-0.018 0.176,-0.007 0.155,0C0.134,0.008 0.114,0.012 0.095,0.012C0.081,0.012 0.07,0.01 0.061,0.007C0.052,0.003 0.045,-0.002 0.04,-0.008C0.034,-0.014 0.031,-0.021 0.028,-0.03C0.026,-0.038 0.025,-0.047 0.025,-0.057C0.025,-0.073 0.027,-0.089 0.032,-0.106C0.037,-0.122 0.042,-0.138 0.049,-0.152C0.06,-0.177 0.072,-0.202 0.083,-0.228C0.095,-0.253 0.106,-0.276 0.116,-0.296L0.264,-0.611C0.27,-0.624 0.277,-0.633 0.287,-0.638C0.297,-0.643 0.307,-0.646 0.317,-0.646C0.327,-0.646 0.337,-0.643 0.345,-0.638C0.353,-0.632 0.357,-0.623 0.357,-0.611C0.357,-0.605 0.356,-0.599 0.353,-0.592C0.351,-0.586 0.347,-0.579 0.343,-0.571C0.335,-0.556 0.325,-0.537 0.314,-0.515C0.302,-0.493 0.29,-0.469 0.278,-0.443C0.265,-0.417 0.252,-0.39 0.238,-0.362C0.225,-0.333 0.211,-0.306 0.198,-0.279C0.186,-0.253 0.174,-0.227 0.162,-0.203C0.151,-0.179 0.141,-0.159 0.133,-0.141Z" style="fill:rgb(38,55,74);fill-rule:nonzero;"/>
        </g>
        <g transform="matrix(92.9729,0,0,92.9729,469.312,203.812)">
            <path d="M0.567,-0.229C0.572,-0.232 0.576,-0.234 0.58,-0.236C0.584,-0.237 0.588,-0.238 0.591,-0.238C0.598,-0.238 0.604,-0.236 0.607,-0.23C0.611,-0.225 0.613,-0.218 0.613,-0.21C0.613,-0.202 0.611,-0.193 0.606,-0.185C0.602,-0.176 0.595,-0.168 0.586,-0.163C0.552,-0.137 0.521,-0.113 0.493,-0.091C0.466,-0.07 0.44,-0.051 0.416,-0.036C0.392,-0.02 0.368,-0.008 0.345,0C0.322,0.008 0.297,0.013 0.271,0.013C0.246,0.013 0.227,0.008 0.213,-0.001C0.2,-0.01 0.193,-0.023 0.193,-0.039L0.193,-0.046C0.195,-0.056 0.2,-0.067 0.208,-0.08C0.217,-0.093 0.228,-0.106 0.24,-0.12C0.253,-0.133 0.266,-0.147 0.28,-0.161C0.294,-0.175 0.307,-0.188 0.319,-0.201C0.33,-0.213 0.34,-0.225 0.348,-0.235C0.356,-0.246 0.36,-0.254 0.36,-0.261C0.36,-0.265 0.358,-0.268 0.355,-0.27C0.352,-0.272 0.346,-0.273 0.339,-0.273C0.326,-0.273 0.312,-0.271 0.299,-0.265C0.285,-0.259 0.271,-0.252 0.258,-0.242C0.244,-0.232 0.231,-0.221 0.218,-0.209C0.205,-0.197 0.193,-0.184 0.182,-0.17C0.171,-0.157 0.16,-0.144 0.151,-0.13C0.142,-0.117 0.134,-0.104 0.127,-0.093C0.125,-0.089 0.123,-0.084 0.119,-0.078L0.094,-0.031C0.089,-0.022 0.085,-0.014 0.081,-0.006C0.077,0.002 0.074,0.008 0.071,0.014C0.067,0.02 0.065,0.025 0.064,0.027C0.062,0.03 0.06,0.035 0.056,0.043C0.052,0.052 0.048,0.061 0.043,0.072C0.038,0.083 0.033,0.094 0.028,0.106C0.022,0.118 0.017,0.13 0.012,0.141C0.008,0.151 0.004,0.161 0,0.169C-0.004,0.177 -0.006,0.183 -0.007,0.186C-0.01,0.194 -0.014,0.202 -0.018,0.209C-0.023,0.217 -0.028,0.224 -0.033,0.229C-0.039,0.235 -0.046,0.24 -0.053,0.243C-0.06,0.246 -0.069,0.248 -0.078,0.248C-0.089,0.248 -0.099,0.246 -0.107,0.241C-0.114,0.236 -0.118,0.227 -0.118,0.214C-0.118,0.207 -0.117,0.201 -0.115,0.194C-0.113,0.187 -0.111,0.18 -0.108,0.174L-0.09,0.136C-0.073,0.103 -0.055,0.071 -0.037,0.038C-0.018,0.005 -0.001,-0.027 0.016,-0.059C0.033,-0.091 0.048,-0.123 0.063,-0.154C0.077,-0.185 0.089,-0.214 0.098,-0.243C0.101,-0.249 0.104,-0.257 0.109,-0.268C0.113,-0.278 0.119,-0.289 0.125,-0.299C0.13,-0.31 0.137,-0.319 0.144,-0.326C0.152,-0.334 0.16,-0.338 0.168,-0.338C0.181,-0.338 0.19,-0.335 0.196,-0.33C0.202,-0.325 0.205,-0.318 0.205,-0.308C0.205,-0.306 0.205,-0.303 0.204,-0.299C0.203,-0.295 0.203,-0.29 0.202,-0.285C0.201,-0.281 0.2,-0.276 0.198,-0.272C0.197,-0.268 0.196,-0.265 0.195,-0.263C0.207,-0.274 0.22,-0.285 0.234,-0.296C0.248,-0.307 0.263,-0.316 0.278,-0.325C0.293,-0.334 0.308,-0.341 0.324,-0.347C0.339,-0.352 0.355,-0.355 0.371,-0.355C0.381,-0.355 0.392,-0.354 0.403,-0.351C0.413,-0.348 0.423,-0.345 0.431,-0.34C0.439,-0.335 0.446,-0.328 0.451,-0.321C0.456,-0.313 0.459,-0.304 0.459,-0.294C0.459,-0.281 0.455,-0.266 0.447,-0.251C0.439,-0.236 0.429,-0.221 0.417,-0.206C0.405,-0.19 0.392,-0.175 0.378,-0.161C0.364,-0.146 0.351,-0.133 0.339,-0.121C0.326,-0.109 0.316,-0.099 0.308,-0.091C0.3,-0.083 0.295,-0.077 0.295,-0.074C0.295,-0.07 0.296,-0.067 0.299,-0.065C0.302,-0.062 0.307,-0.061 0.314,-0.061C0.319,-0.061 0.328,-0.064 0.338,-0.069C0.349,-0.074 0.364,-0.083 0.384,-0.096C0.403,-0.109 0.427,-0.126 0.457,-0.148C0.487,-0.169 0.524,-0.197 0.567,-0.229Z" style="fill:rgb(38,55,74);fill-rule:nonzero;"/>
        </g>
        <g transform="matrix(92.9729,0,0,92.9729,513.755,203.812)">
            <path d="M0.004,-0.077C0.012,-0.094 0.021,-0.112 0.031,-0.133C0.041,-0.153 0.052,-0.173 0.062,-0.193C0.072,-0.213 0.082,-0.232 0.091,-0.25C0.1,-0.268 0.108,-0.284 0.114,-0.296L0.275,-0.613C0.277,-0.618 0.28,-0.622 0.284,-0.625C0.288,-0.629 0.293,-0.633 0.298,-0.636C0.303,-0.639 0.309,-0.642 0.314,-0.643C0.32,-0.645 0.326,-0.646 0.332,-0.646C0.346,-0.646 0.356,-0.643 0.362,-0.638C0.367,-0.633 0.37,-0.626 0.37,-0.618C0.37,-0.611 0.368,-0.603 0.365,-0.595C0.361,-0.587 0.357,-0.58 0.353,-0.573C0.338,-0.549 0.324,-0.524 0.311,-0.499C0.298,-0.474 0.285,-0.449 0.272,-0.424C0.259,-0.399 0.245,-0.374 0.232,-0.349C0.219,-0.324 0.205,-0.299 0.19,-0.275C0.199,-0.284 0.209,-0.293 0.219,-0.302C0.229,-0.312 0.24,-0.32 0.252,-0.328C0.264,-0.336 0.278,-0.342 0.292,-0.347C0.306,-0.352 0.322,-0.355 0.34,-0.355C0.35,-0.355 0.36,-0.354 0.37,-0.352C0.379,-0.35 0.387,-0.347 0.395,-0.343C0.402,-0.338 0.407,-0.332 0.412,-0.324C0.416,-0.317 0.418,-0.307 0.418,-0.296C0.418,-0.282 0.416,-0.268 0.411,-0.256C0.407,-0.244 0.401,-0.232 0.395,-0.221C0.388,-0.211 0.38,-0.2 0.372,-0.19C0.364,-0.18 0.356,-0.17 0.349,-0.16C0.342,-0.15 0.335,-0.139 0.33,-0.128C0.324,-0.117 0.321,-0.105 0.32,-0.092L0.32,-0.09C0.319,-0.089 0.319,-0.089 0.319,-0.088C0.319,-0.081 0.322,-0.077 0.326,-0.076C0.33,-0.074 0.336,-0.073 0.343,-0.073C0.352,-0.073 0.361,-0.075 0.371,-0.078C0.381,-0.082 0.391,-0.086 0.402,-0.092C0.412,-0.098 0.422,-0.104 0.432,-0.111C0.443,-0.118 0.452,-0.126 0.462,-0.133C0.471,-0.141 0.479,-0.148 0.487,-0.155C0.495,-0.162 0.502,-0.168 0.507,-0.173C0.51,-0.176 0.513,-0.178 0.517,-0.179C0.52,-0.181 0.523,-0.181 0.526,-0.181C0.532,-0.181 0.537,-0.179 0.541,-0.175C0.545,-0.17 0.547,-0.164 0.547,-0.157C0.547,-0.15 0.545,-0.142 0.54,-0.133C0.535,-0.125 0.527,-0.116 0.516,-0.107C0.498,-0.091 0.479,-0.076 0.461,-0.062C0.442,-0.048 0.424,-0.035 0.405,-0.024C0.386,-0.013 0.367,-0.004 0.348,0.002C0.33,0.009 0.311,0.012 0.293,0.012C0.27,0.012 0.252,0.007 0.238,-0.004C0.224,-0.014 0.217,-0.031 0.217,-0.054C0.217,-0.07 0.22,-0.086 0.225,-0.101C0.231,-0.116 0.238,-0.13 0.246,-0.144C0.255,-0.158 0.264,-0.171 0.273,-0.184C0.282,-0.197 0.291,-0.209 0.298,-0.222C0.302,-0.227 0.305,-0.232 0.307,-0.237C0.309,-0.242 0.31,-0.247 0.31,-0.252C0.31,-0.257 0.309,-0.261 0.306,-0.264C0.304,-0.267 0.299,-0.269 0.294,-0.269C0.275,-0.269 0.257,-0.264 0.241,-0.255C0.224,-0.245 0.209,-0.233 0.196,-0.219C0.182,-0.204 0.169,-0.188 0.158,-0.171C0.146,-0.153 0.135,-0.137 0.125,-0.121C0.12,-0.113 0.116,-0.105 0.111,-0.096C0.106,-0.087 0.101,-0.077 0.096,-0.067C0.091,-0.058 0.086,-0.048 0.081,-0.038C0.075,-0.029 0.069,-0.02 0.063,-0.013C0.057,-0.005 0.051,0.001 0.044,0.005C0.038,0.01 0.031,0.012 0.023,0.012C0.012,0.012 0.003,0.009 -0.003,0.002C-0.009,-0.004 -0.012,-0.013 -0.012,-0.023C-0.012,-0.03 -0.011,-0.038 -0.008,-0.047C-0.006,-0.055 -0.001,-0.065 0.004,-0.077Z" style="fill:rgb(38,55,74);fill-rule:nonzero;"/>
        </g>
        <g transform="matrix(92.9729,0,0,92.9729,554.522,203.812)">
            <path d="M0.169,-0.422C0.169,-0.43 0.17,-0.438 0.173,-0.446C0.176,-0.454 0.18,-0.461 0.186,-0.467C0.191,-0.474 0.198,-0.479 0.206,-0.483C0.215,-0.488 0.224,-0.49 0.236,-0.49C0.255,-0.49 0.268,-0.486 0.275,-0.479C0.283,-0.471 0.287,-0.462 0.287,-0.451C0.287,-0.445 0.285,-0.438 0.283,-0.431C0.281,-0.423 0.277,-0.416 0.272,-0.41C0.267,-0.404 0.261,-0.398 0.253,-0.394C0.245,-0.39 0.236,-0.388 0.225,-0.388C0.205,-0.388 0.191,-0.391 0.183,-0.397C0.174,-0.404 0.17,-0.412 0.169,-0.422ZM0.115,-0.313C0.121,-0.322 0.127,-0.328 0.134,-0.332C0.141,-0.336 0.149,-0.338 0.156,-0.338C0.169,-0.338 0.179,-0.334 0.188,-0.326C0.197,-0.318 0.202,-0.308 0.202,-0.295C0.201,-0.292 0.201,-0.29 0.2,-0.287C0.2,-0.284 0.199,-0.281 0.197,-0.278C0.193,-0.269 0.189,-0.262 0.186,-0.256C0.183,-0.25 0.18,-0.245 0.178,-0.24L0.163,-0.208C0.159,-0.199 0.154,-0.191 0.149,-0.181C0.145,-0.171 0.14,-0.161 0.135,-0.151C0.131,-0.141 0.127,-0.131 0.124,-0.122C0.121,-0.112 0.12,-0.103 0.12,-0.095C0.12,-0.086 0.122,-0.08 0.126,-0.077C0.131,-0.075 0.137,-0.073 0.145,-0.073C0.154,-0.073 0.164,-0.075 0.174,-0.079C0.184,-0.083 0.194,-0.088 0.204,-0.094C0.214,-0.1 0.224,-0.108 0.233,-0.115C0.243,-0.123 0.252,-0.132 0.261,-0.14C0.27,-0.148 0.278,-0.156 0.285,-0.163C0.292,-0.171 0.298,-0.177 0.303,-0.183C0.31,-0.189 0.316,-0.192 0.323,-0.192C0.329,-0.192 0.333,-0.19 0.337,-0.185C0.341,-0.179 0.343,-0.173 0.343,-0.165C0.343,-0.157 0.341,-0.149 0.337,-0.141C0.333,-0.132 0.327,-0.124 0.319,-0.117C0.302,-0.1 0.285,-0.084 0.268,-0.068C0.251,-0.053 0.233,-0.039 0.215,-0.027C0.197,-0.015 0.179,-0.006 0.161,0.001C0.142,0.009 0.124,0.012 0.105,0.012C0.079,0.012 0.058,0.005 0.043,-0.008C0.028,-0.022 0.021,-0.043 0.021,-0.071C0.021,-0.086 0.023,-0.101 0.027,-0.115C0.031,-0.13 0.036,-0.143 0.042,-0.157C0.048,-0.17 0.054,-0.184 0.061,-0.196C0.067,-0.209 0.073,-0.221 0.077,-0.232C0.079,-0.236 0.082,-0.243 0.086,-0.251C0.09,-0.26 0.094,-0.269 0.099,-0.278C0.104,-0.289 0.109,-0.3 0.115,-0.313Z" style="fill:rgb(38,55,74);fill-rule:nonzero;"/>
        </g>
        <g transform="matrix(92.9729,0,0,92.9729,576.312,203.812)">
            <path d="M0.129,-0.296C0.136,-0.31 0.144,-0.321 0.154,-0.328C0.164,-0.334 0.173,-0.338 0.183,-0.338C0.19,-0.338 0.197,-0.335 0.204,-0.329C0.21,-0.324 0.213,-0.315 0.213,-0.304C0.213,-0.3 0.212,-0.295 0.211,-0.291C0.21,-0.286 0.209,-0.28 0.206,-0.275C0.213,-0.284 0.223,-0.293 0.237,-0.303C0.25,-0.313 0.265,-0.321 0.281,-0.329C0.297,-0.337 0.314,-0.343 0.331,-0.348C0.348,-0.353 0.364,-0.355 0.379,-0.355C0.397,-0.355 0.411,-0.351 0.423,-0.343C0.434,-0.334 0.44,-0.32 0.44,-0.3C0.44,-0.289 0.438,-0.276 0.435,-0.264C0.431,-0.251 0.426,-0.238 0.421,-0.226C0.415,-0.213 0.409,-0.2 0.402,-0.188C0.395,-0.176 0.388,-0.165 0.381,-0.154C0.374,-0.143 0.368,-0.133 0.362,-0.124C0.356,-0.115 0.352,-0.108 0.349,-0.102C0.344,-0.097 0.342,-0.091 0.342,-0.084C0.342,-0.081 0.343,-0.079 0.345,-0.077C0.346,-0.075 0.349,-0.074 0.353,-0.074C0.355,-0.074 0.357,-0.074 0.36,-0.075C0.363,-0.075 0.367,-0.077 0.371,-0.08C0.389,-0.087 0.407,-0.095 0.425,-0.104C0.443,-0.114 0.461,-0.125 0.478,-0.135C0.495,-0.146 0.51,-0.157 0.525,-0.168C0.539,-0.179 0.551,-0.189 0.56,-0.198C0.563,-0.2 0.565,-0.202 0.568,-0.203C0.57,-0.204 0.573,-0.204 0.575,-0.204C0.581,-0.204 0.585,-0.202 0.588,-0.198C0.591,-0.194 0.593,-0.188 0.593,-0.182C0.593,-0.172 0.59,-0.16 0.583,-0.148C0.577,-0.136 0.567,-0.124 0.553,-0.113C0.535,-0.1 0.518,-0.088 0.502,-0.077C0.487,-0.066 0.471,-0.055 0.455,-0.046C0.439,-0.036 0.421,-0.027 0.403,-0.019C0.385,-0.01 0.363,-0.003 0.338,0.004C0.33,0.007 0.322,0.009 0.315,0.01C0.308,0.012 0.302,0.012 0.296,0.012C0.279,0.012 0.266,0.007 0.258,-0.002C0.25,-0.012 0.246,-0.025 0.246,-0.042L0.246,-0.049C0.247,-0.051 0.247,-0.054 0.247,-0.056C0.248,-0.066 0.25,-0.077 0.255,-0.089C0.26,-0.101 0.266,-0.114 0.272,-0.126C0.279,-0.139 0.286,-0.152 0.293,-0.164C0.301,-0.177 0.308,-0.189 0.314,-0.2C0.321,-0.211 0.326,-0.221 0.33,-0.23C0.334,-0.239 0.336,-0.246 0.336,-0.251C0.336,-0.256 0.335,-0.26 0.332,-0.264C0.33,-0.267 0.325,-0.269 0.32,-0.269C0.299,-0.269 0.279,-0.263 0.26,-0.25C0.242,-0.238 0.224,-0.223 0.208,-0.205C0.192,-0.187 0.177,-0.168 0.163,-0.147C0.149,-0.127 0.137,-0.109 0.127,-0.093C0.12,-0.083 0.115,-0.071 0.109,-0.059C0.104,-0.047 0.098,-0.035 0.092,-0.025C0.086,-0.014 0.08,-0.005 0.073,0.002C0.065,0.009 0.056,0.012 0.045,0.012C0.034,0.012 0.025,0.009 0.018,0.001C0.012,-0.006 0.008,-0.014 0.008,-0.025C0.008,-0.03 0.011,-0.039 0.015,-0.052C0.02,-0.064 0.026,-0.078 0.033,-0.095C0.04,-0.111 0.048,-0.128 0.057,-0.147C0.066,-0.166 0.075,-0.184 0.084,-0.203C0.093,-0.221 0.101,-0.239 0.109,-0.255C0.118,-0.271 0.124,-0.285 0.129,-0.296Z" style="fill:rgb(38,55,74);fill-rule:nonzero;"/>
        </g>
    </g>
</svg>
