<?xml version="1.0" encoding="UTF-8" standalone="no"?>
<!DOCTYPE svg PUBLIC "-//W3C//DTD SVG 1.1//EN" "http://www.w3.org/Graphics/SVG/1.1/DTD/svg11.dtd">
<svg width="100%" height="100%" viewBox="0 0 512 512" version="1.1" xmlns="http://www.w3.org/2000/svg" xmlns:xlink="http://www.w3.org/1999/xlink" xml:space="preserve" xmlns:serif="http://www.serif.com/" style="fill-rule:evenodd;clip-rule:evenodd;stroke-linejoin:round;stroke-miterlimit:2;">
    <g transform="matrix(0.707107,-0.707107,0.707107,0.707107,-164.529,306.764)">
        <path d="M352.002,416C353.305,415.999 354.477,416.79 354.965,417.998C355.453,419.206 355.158,420.589 354.221,421.493C336.983,437.91 313.661,448 288,448C235.016,448 192,404.984 192,352C192,299.016 235.016,256 288,256C313.661,256 336.983,266.09 354.213,282.514C355.147,283.416 355.44,284.794 354.954,285.997C354.468,287.201 353.3,287.989 352.002,287.989C352.001,288 352.001,288 352,288C316.677,288 288,316.677 288,352C288,387.323 316.677,416 352,416C352.001,416 352.001,416 352.002,416Z" style="fill:url(#_Linear1);"/>
    </g>
    <g transform="matrix(1,0,0,1,1.3925,2.1835)">
        <path d="M156.867,82.183C157.776,84.057 159.41,85.479 161.391,86.123C163.372,86.766 165.529,86.575 167.366,85.594C193.911,71.821 224.05,64 256,64C343.883,64 418.055,123.174 440.811,203.816C441.418,206.062 440.442,208.436 438.432,209.605C436.421,210.775 433.876,210.451 432.223,208.814C403.327,180.386 363.698,162.831 320,162.831C317.76,162.831 315.53,162.877 313.312,162.969C311.8,163.029 310.466,163.974 309.907,165.379C309.348,166.785 309.669,168.388 310.725,169.47C316.471,175.251 320.019,183.214 320.019,192C320.019,209.661 305.68,224 288.019,224C270.358,224 256.019,209.661 256.019,192C256.019,188.671 256.529,185.46 257.474,182.44C257.92,181.025 257.492,179.48 256.38,178.497C255.268,177.514 253.682,177.278 252.332,177.895C197.797,203.354 160,258.713 160,322.831C160,364.039 175.612,401.63 201.24,430.005C202.808,431.733 203.022,434.298 201.761,436.261C200.5,438.224 198.079,439.096 195.856,438.389C119.311,413.116 64,340.966 64,256C64,208.839 81.04,165.626 109.295,132.189C110.656,130.597 111.314,128.521 111.117,126.435C110.919,124.349 109.885,122.433 108.249,121.124C100.783,115.292 96,106.2 96,96C96,78.339 110.339,64 128,64C140.714,64 151.706,71.431 156.867,82.183ZM368,128C376.831,128 384,135.178 384,144.019C384,152.86 376.831,160.038 368,160.038C359.169,160.038 352,152.86 352,144.019C352,135.178 359.169,128 368,128Z" style="fill:url(#_Linear2);"/>
    </g>
    <defs>
        <linearGradient id="_Linear1" x1="0" y1="0" x2="1" y2="0" gradientUnits="userSpaceOnUse" gradientTransform="matrix(167.968,0,0,192,192,352)"><stop offset="0" style="stop-color:rgb(71,116,158);stop-opacity:1"/><stop offset="1" style="stop-color:rgb(202,217,201);stop-opacity:1"/></linearGradient>
        <linearGradient id="_Linear2" x1="0" y1="0" x2="1" y2="0" gradientUnits="userSpaceOnUse" gradientTransform="matrix(381.215,0,0,379.633,64,253.816)"><stop offset="0" style="stop-color:rgb(71,116,158);stop-opacity:1"/><stop offset="1" style="stop-color:rgb(192,139,174);stop-opacity:1"/></linearGradient>
    </defs>
</svg>
