<?xml version="1.0" encoding="UTF-8" standalone="no"?>
<!DOCTYPE svg PUBLIC "-//W3C//DTD SVG 1.1//EN" "http://www.w3.org/Graphics/SVG/1.1/DTD/svg11.dtd">
<svg width="100%" height="100%" viewBox="0 0 1024 1024" version="1.1" xmlns="http://www.w3.org/2000/svg" xmlns:xlink="http://www.w3.org/1999/xlink" xml:space="preserve" xmlns:serif="http://www.serif.com/" style="fill-rule:evenodd;clip-rule:evenodd;stroke-linejoin:round;stroke-miterlimit:2;">
    <path d="M1024,0L1024,1024L0,1024L0,0L1024,0ZM576.979,514.023C578.126,511.771 579.234,509.585 580.304,507.463C582.186,503.733 583.766,500.557 585.043,497.936L618.313,432.505C618.716,431.631 619.337,430.791 620.178,429.985C621.018,429.178 621.976,428.456 623.051,427.817C624.126,427.179 625.269,426.674 626.479,426.305C627.689,425.935 628.898,425.75 630.108,425.75C633.066,425.75 635.115,426.305 636.258,427.414C637.401,428.523 637.972,429.884 637.972,431.497C637.972,432.976 637.602,434.538 636.863,436.185C636.124,437.832 635.284,439.361 634.343,440.772C631.385,445.813 628.546,450.904 625.823,456.046C623.101,461.188 620.379,466.363 617.657,471.572C614.935,476.781 612.196,481.956 609.441,487.098C606.685,492.24 603.795,497.331 600.77,502.372C602.652,500.557 604.652,498.675 606.769,496.726C608.886,494.777 611.188,492.996 613.675,491.383C616.162,489.77 618.884,488.442 621.841,487.4C624.798,486.359 628.092,485.838 631.721,485.838C633.872,485.838 635.922,486.039 637.871,486.443C639.82,486.846 641.534,487.501 643.013,488.409C644.492,489.316 645.668,490.559 646.542,492.139C647.415,493.718 647.852,495.651 647.852,497.936C647.852,500.96 647.398,503.733 646.491,506.253C645.584,508.774 644.424,511.16 643.013,513.411C641.601,515.663 640.056,517.814 638.375,519.864C636.695,521.914 635.099,523.997 633.586,526.115C632.074,528.232 630.764,530.433 629.655,532.718C628.546,535.003 627.857,537.49 627.588,540.179C627.588,540.313 627.571,540.447 627.537,540.582C627.504,540.716 627.487,540.851 627.487,540.985C627.487,542.329 627.941,543.17 628.848,543.506C629.755,543.842 630.915,544.01 632.326,544.01C634.141,544.01 636.09,543.657 638.174,542.951C640.257,542.245 642.358,541.304 644.475,540.128C646.592,538.952 648.709,537.625 650.826,536.146C652.943,534.667 654.96,533.155 656.875,531.609C657.86,530.815 658.804,530.034 659.708,529.266C660.042,528.41 660.392,527.561 660.757,526.719C661.967,523.93 663.244,521.242 664.588,518.654C665.932,516.066 667.075,513.596 668.016,511.244C668.352,510.37 668.94,509.026 669.78,507.211C670.62,505.396 671.511,503.548 672.452,501.666C673.527,499.448 674.67,497.096 675.88,494.609C677.022,492.727 678.333,491.383 679.811,490.576C681.29,489.77 682.802,489.366 684.348,489.366C686.902,489.366 689.103,490.19 690.952,491.836C692.8,493.483 693.724,495.583 693.724,498.138C693.657,498.742 693.573,499.347 693.472,499.952C693.371,500.557 693.153,501.162 692.817,501.767C691.876,503.514 691.103,504.993 690.498,506.203C689.893,507.413 689.339,508.539 688.835,509.58C688.331,510.622 687.843,511.647 687.373,512.655C686.902,513.663 686.331,514.873 685.659,516.285C684.852,517.965 683.945,519.797 682.937,521.779C681.929,523.762 680.971,525.795 680.063,527.879C679.156,529.962 678.383,532.012 677.745,534.029C677.106,536.045 676.787,537.893 676.787,539.574C676.787,541.388 677.241,542.581 678.148,543.153C679.055,543.724 680.349,544.01 682.029,544.01C683.911,544.01 685.877,543.606 687.927,542.8C689.977,541.993 692.044,540.952 694.128,539.675C696.211,538.397 698.261,536.936 700.277,535.289C702.294,533.642 704.193,531.979 705.974,530.298C707.755,528.618 709.401,527.005 710.914,525.459C712.426,523.913 713.686,522.535 714.694,521.326C715.266,520.783 715.837,520.355 716.409,520.043C716.863,519.108 717.316,518.174 717.769,517.243C719.618,513.445 721.382,509.866 723.062,506.505C724.743,503.145 726.12,500.288 727.196,497.936C728.54,495.046 730.22,492.895 732.237,491.484C734.253,490.072 736.236,489.366 738.185,489.366C739.798,489.366 741.243,489.954 742.52,491.131C743.797,492.307 744.436,494.038 744.436,496.323C744.436,497.197 744.335,498.138 744.133,499.146C743.932,500.154 743.562,501.229 743.024,502.372C744.503,500.49 746.62,498.558 749.376,496.575C752.131,494.592 755.173,492.811 758.5,491.232C761.827,489.652 765.255,488.358 768.783,487.35C772.312,486.342 775.656,485.838 778.815,485.838C782.377,485.838 785.351,486.695 787.737,488.409C790.123,490.123 791.316,493.029 791.316,497.129C791.316,499.549 790.946,502.069 790.207,504.691C789.468,507.312 788.51,509.933 787.334,512.554C786.158,515.176 784.847,517.747 783.402,520.267C781.957,522.788 780.529,525.157 779.117,527.375C777.706,529.593 776.412,531.626 775.236,533.474C774.059,535.323 773.135,536.852 772.463,538.061C771.589,539.137 771.152,540.38 771.152,541.792C771.152,542.329 771.321,542.8 771.657,543.203C771.993,543.606 772.53,543.808 773.27,543.808C773.74,543.808 774.278,543.758 774.883,543.657C775.488,543.556 776.227,543.203 777.101,542.598C780.73,541.254 784.444,539.574 788.241,537.557C792.039,535.541 795.685,533.407 799.18,531.155C802.675,528.904 805.884,526.652 808.808,524.401C811.732,522.149 814.168,520.116 816.117,518.301C816.655,517.831 817.193,517.495 817.73,517.293C818.268,517.091 818.772,516.99 819.243,516.99C820.385,516.99 821.276,517.427 821.914,518.301C822.553,519.175 822.872,520.284 822.872,521.628C822.872,523.712 822.217,526.03 820.906,528.585C819.595,531.139 817.529,533.525 814.706,535.743C810.875,538.498 807.363,541.019 804.17,543.304C800.978,545.589 797.718,547.723 794.391,549.706C791.064,551.689 787.502,553.537 783.704,555.251C779.907,556.965 775.454,558.561 770.346,560.04C768.598,560.577 767.002,560.981 765.557,561.25C764.112,561.518 762.785,561.653 761.575,561.653C758.013,561.653 755.408,560.661 753.761,558.679C752.115,556.696 751.291,553.923 751.291,550.361C751.291,549.891 751.308,549.437 751.342,549C751.375,548.563 751.426,548.076 751.493,547.538C751.627,545.455 752.182,543.17 753.156,540.683C754.131,538.196 755.307,535.642 756.685,533.021C758.063,530.399 759.525,527.795 761.071,525.207C762.617,522.619 764.045,520.166 765.355,517.847C766.666,515.529 767.758,513.462 768.632,511.647C769.506,509.832 769.943,508.354 769.943,507.211C769.943,506.203 769.657,505.346 769.086,504.64C768.514,503.935 767.657,503.582 766.515,503.582C762.213,503.582 758.13,504.859 754.265,507.413C750.401,509.967 746.788,513.109 743.428,516.839C740.067,520.57 736.975,524.518 734.152,528.685C731.329,532.853 728.843,536.583 726.692,539.876C725.348,542.094 724.121,544.463 723.012,546.984C721.903,549.504 720.744,551.857 719.534,554.041C718.324,556.225 716.963,558.04 715.451,559.485C713.938,560.93 712.04,561.653 709.754,561.653C707.402,561.653 705.554,560.913 704.209,559.435C702.865,557.956 702.193,556.141 702.193,553.991C702.193,552.848 702.663,551 703.604,548.446L703.664,548.284C701.311,550.192 698.922,551.942 696.497,553.537C692.767,555.99 689.019,557.956 685.256,559.435C681.492,560.913 677.694,561.653 673.863,561.653C668.419,561.653 664.134,560.258 661.009,557.469C658.279,555.032 656.741,551.403 656.396,546.581C652.672,549.435 648.917,551.972 645.13,554.192C641.232,556.478 637.35,558.292 633.486,559.636C629.621,560.981 625.84,561.653 622.144,561.653C617.372,561.653 613.54,560.561 610.65,558.376C607.76,556.192 606.315,552.747 606.315,548.042C606.315,544.615 606.903,541.372 608.079,538.313C609.256,535.255 610.701,532.298 612.415,529.442C614.129,526.585 615.96,523.829 617.909,521.174C619.858,518.52 621.572,515.915 623.051,513.361C623.857,512.218 624.479,511.16 624.916,510.185C625.353,509.211 625.571,508.152 625.571,507.01C625.571,506.001 625.303,505.178 624.765,504.539C624.227,503.901 623.387,503.582 622.244,503.582C618.279,503.582 614.616,504.556 611.255,506.505C607.895,508.455 604.803,510.941 601.98,513.966C599.157,516.99 596.536,520.301 594.116,523.897C591.697,527.492 589.445,530.937 587.361,534.23C586.42,535.709 585.463,537.406 584.488,539.322C583.514,541.237 582.505,543.203 581.464,545.22C580.422,547.236 579.33,549.235 578.187,551.218C577.044,553.201 575.851,554.965 574.608,556.511C573.365,558.057 572.054,559.3 570.676,560.241C569.298,561.182 567.87,561.653 566.391,561.653C564.039,561.653 562.224,560.964 560.947,559.586C559.67,558.208 559.032,556.478 559.032,554.394C559.032,552.848 559.3,551.218 559.838,549.504C560.376,547.79 561.25,545.69 562.459,543.203C562.75,542.585 563.049,541.955 563.355,541.311C558.198,545.31 553.312,548.78 548.698,551.722C543.69,554.915 538.801,557.385 534.029,559.132C529.257,560.88 524.149,561.754 518.704,561.754C513.596,561.754 509.648,560.813 506.858,558.931C504.069,557.049 502.674,554.461 502.674,551.168L502.674,550.412C502.674,550.176 502.708,549.891 502.775,549.555C503.044,547.538 504.086,545.22 505.901,542.598C507.715,539.977 509.9,537.255 512.454,534.432C515.008,531.609 517.73,528.753 520.62,525.862C523.51,522.972 526.182,520.233 528.635,517.646C531.088,515.058 533.121,512.689 534.734,510.538C536.348,508.387 537.154,506.64 537.154,505.296C537.154,504.489 536.818,503.851 536.146,503.38C535.474,502.91 534.365,502.674 532.819,502.674C530.13,502.674 527.358,503.262 524.501,504.439C521.645,505.615 518.822,507.194 516.033,509.177C513.243,511.16 510.521,513.428 507.866,515.982C505.212,518.536 502.725,521.191 500.406,523.947C498.087,526.703 495.97,529.475 494.054,532.264C492.139,535.054 490.509,537.625 489.165,539.977C488.761,540.716 488.19,541.758 487.451,543.102C486.712,544.447 485.905,545.959 485.031,547.639C484.157,549.319 483.233,551.05 482.259,552.831C481.284,554.612 480.394,556.293 479.587,557.872C478.78,559.452 478.058,560.863 477.419,562.107C476.781,563.35 476.327,564.207 476.058,564.677C475.722,565.282 475.168,566.425 474.395,568.105C473.622,569.785 472.731,571.751 471.723,574.003C470.715,576.255 469.656,578.624 468.547,581.111C467.438,583.598 466.397,585.95 465.422,588.168C464.448,590.386 463.591,592.335 462.851,594.015C462.112,595.696 461.641,596.838 461.44,597.443C460.768,599.191 459.978,600.837 459.071,602.383C458.163,603.929 457.121,605.29 455.945,606.466C454.769,607.643 453.425,608.584 451.913,609.289C450.4,609.995 448.703,610.348 446.821,610.348C444.402,610.348 442.402,609.861 440.823,608.886C439.243,607.911 438.453,606.046 438.453,603.291C438.453,601.946 438.655,600.569 439.058,599.157C439.462,597.746 439.966,596.351 440.571,594.973C441.175,593.595 441.797,592.251 442.436,590.94C443.074,589.63 443.662,588.37 444.2,587.16C447.829,580.439 451.526,573.701 455.29,566.946C459.054,560.191 462.666,553.503 466.128,546.883C466.85,545.502 467.561,544.126 468.262,542.754C468.038,542.938 467.814,543.121 467.59,543.304C463.221,546.866 458.869,550.008 454.534,552.73C450.199,555.453 445.897,557.62 441.629,559.233C437.361,560.846 433.211,561.653 429.178,561.653C426.422,561.653 424.12,561.283 422.272,560.544C420.424,559.804 418.945,558.796 417.836,557.519C416.727,556.242 415.937,554.73 415.467,552.982C414.996,551.235 414.761,549.387 414.761,547.438C414.761,544.144 415.248,540.767 416.223,537.305C416.497,536.331 416.786,535.379 417.09,534.449C415.484,535.652 413.834,536.722 412.14,537.658C409.586,539.07 407.032,539.775 404.478,539.775C402.73,539.775 401.033,539.506 399.386,538.969C397.74,538.431 396.076,537.557 394.396,536.348C391.976,540.111 389.221,543.539 386.129,546.631C383.037,549.723 379.592,552.378 375.795,554.596C371.998,556.814 367.898,558.544 363.495,559.788C359.093,561.031 354.405,561.653 349.431,561.653C347.549,561.653 345.365,561.283 342.878,560.544C340.391,559.804 338.022,558.578 335.77,556.864C333.519,555.15 331.62,552.915 330.074,550.16C328.528,547.404 327.755,544.043 327.755,540.078C327.755,537.389 328.192,534.163 329.066,530.399C329.94,526.635 331.267,522.754 333.048,518.755C334.829,514.756 337.081,510.79 339.803,506.858C342.525,502.926 345.768,499.398 349.532,496.272C353.296,493.147 357.597,490.627 362.437,488.711C367.276,486.796 372.653,485.838 378.567,485.838C381.122,485.838 383.86,486.174 386.784,486.846C389.708,487.518 392.413,488.661 394.9,490.274C397.387,491.887 399.454,494.021 401.1,496.676C402.747,499.331 403.57,502.607 403.57,506.505C403.57,508.522 403.301,510.824 402.764,513.411C402.226,515.999 401.42,518.704 400.344,521.527C401.016,522.334 401.789,522.905 402.663,523.241C403.537,523.577 404.478,523.745 405.486,523.745C406.897,523.745 408.46,523.342 410.174,522.535C411.888,521.729 413.652,520.687 415.467,519.41C417.282,518.133 419.096,516.688 420.911,515.075C422.726,513.462 424.44,511.849 426.053,510.236C427.231,509.057 428.329,507.923 429.347,506.834C430.82,503.685 432.209,500.719 433.513,497.936L464.061,432.908C465.271,430.287 466.901,428.439 468.951,427.363C471.001,426.288 473.067,425.75 475.151,425.75C477.235,425.75 479.133,426.322 480.847,427.464C482.561,428.607 483.418,430.455 483.418,433.009C483.418,434.219 483.132,435.496 482.561,436.84C481.99,438.184 481.267,439.63 480.394,441.175C478.713,444.334 476.714,448.199 474.395,452.769C472.076,457.34 469.589,462.314 466.934,467.691C464.28,473.067 461.557,478.663 458.768,484.477C455.979,490.291 453.257,495.953 450.602,501.465C447.947,506.976 445.46,512.202 443.141,517.142C440.823,522.082 438.823,526.367 437.143,529.996C436.403,531.542 435.681,533.34 434.975,535.39C434.269,537.44 433.917,539.271 433.917,540.884C433.917,541.893 434.118,542.699 434.521,543.304C434.925,543.909 435.698,544.211 436.84,544.211C438.252,544.211 440.016,543.791 442.133,542.951C444.25,542.111 446.536,541.002 448.989,539.624C451.442,538.246 453.996,536.667 456.651,534.886C459.306,533.105 461.944,531.256 464.565,529.341C467.186,527.425 469.69,525.51 472.076,523.594C474.462,521.679 476.596,519.914 478.478,518.301C478.931,517.904 479.457,517.603 480.053,517.398C481.184,514.549 482.205,511.758 483.116,509.026C483.653,507.816 484.393,506.102 485.334,503.884C486.275,501.666 487.35,499.482 488.56,497.331C489.77,495.18 491.131,493.315 492.643,491.736C494.155,490.156 495.785,489.366 497.533,489.366C500.221,489.366 502.17,489.887 503.38,490.929C504.59,491.971 505.195,493.5 505.195,495.516C505.195,495.92 505.128,496.558 504.993,497.432C504.859,498.306 504.691,499.23 504.489,500.204C504.287,501.179 504.069,502.103 503.834,502.977C503.599,503.851 503.38,504.489 503.178,504.892C505.665,502.607 508.354,500.339 511.244,498.087C514.134,495.836 517.125,493.802 520.217,491.988C523.308,490.173 526.467,488.694 529.694,487.552C532.92,486.409 536.146,485.838 539.372,485.838C541.59,485.838 543.791,486.107 545.976,486.644C548.16,487.182 550.109,487.972 551.823,489.014C553.537,490.055 554.932,491.366 556.007,492.945C557.082,494.525 557.62,496.356 557.62,498.44C557.62,501.196 556.797,504.136 555.15,507.262C553.503,510.387 551.437,513.529 548.95,516.688C546.463,519.847 543.774,522.922 540.884,525.913C537.994,528.904 535.289,531.626 532.768,534.079C530.248,536.532 528.131,538.616 526.417,540.33C524.703,542.044 523.813,543.203 523.745,543.808C523.745,544.615 524.048,545.27 524.653,545.774C525.258,546.278 526.266,546.53 527.677,546.53C528.82,546.53 530.5,545.992 532.718,544.917C534.936,543.842 538.045,541.977 542.044,539.322C546.043,536.667 551.117,533.105 557.267,528.635C562.717,524.675 569.287,519.804 576.979,514.023ZM276.842,468.295C275.7,470.379 274.204,473.135 272.356,476.562C270.507,479.99 268.39,483.821 266.004,488.056C263.618,492.29 261.031,496.844 258.241,501.717C255.452,506.589 252.562,511.479 249.571,516.386C246.58,521.292 243.522,526.115 240.397,530.853C237.271,535.591 234.23,539.977 231.272,544.01C238.531,543.27 245.521,541.422 252.243,538.465C258.964,535.507 265.265,531.828 271.146,527.425C277.027,523.023 282.404,518.083 287.277,512.605C292.15,507.127 296.317,501.448 299.778,495.567C303.24,489.686 305.928,483.788 307.844,477.873C309.759,471.958 310.717,466.38 310.717,461.137C310.717,456.701 310.163,452.601 309.054,448.838C307.945,445.074 306.264,441.814 304.013,439.058C301.761,436.303 298.888,434.152 295.393,432.606C291.898,431.06 287.798,430.287 283.093,430.287C278.724,430.287 274.339,430.707 269.936,431.547C265.534,432.387 261.316,433.513 257.284,434.925C253.251,436.336 249.537,438 246.143,439.915C242.749,441.831 239.842,443.897 237.422,446.115C234.734,449.073 232.365,452.03 230.315,454.987C228.265,457.945 226.248,460.6 224.266,462.952C222.283,465.304 220.149,467.22 217.864,468.699C215.578,470.177 212.89,470.917 209.798,470.917C204.018,470.917 201.128,468.363 201.128,463.255C201.128,460.028 202.17,456.55 204.253,452.82C206.337,449.09 209.244,445.393 212.974,441.73C216.704,438.067 221.14,434.538 226.282,431.144C231.424,427.75 237.086,424.759 243.27,422.171C249.453,419.584 256.04,417.517 263.03,415.971C270.02,414.425 277.212,413.652 284.605,413.652C293.208,413.652 300.702,414.929 307.088,417.483C313.473,420.037 318.766,423.549 322.966,428.019C327.167,432.488 330.292,437.748 332.342,443.797C334.392,449.846 335.417,456.365 335.417,463.355C335.417,470.345 334.224,477.671 331.838,485.334C329.452,492.996 325.957,500.524 321.353,507.917C316.749,515.31 311.07,522.334 304.315,528.988C297.56,535.642 289.797,541.489 281.026,546.53C272.255,551.571 262.543,555.57 251.89,558.527C241.237,561.485 229.727,562.963 217.36,562.963C214.671,562.963 212.554,562.107 211.008,560.393C209.462,558.679 208.689,556.578 208.689,554.091C208.689,552.142 209.025,550.26 209.697,548.446C210.37,546.631 211.243,544.951 212.319,543.405L253.755,461.037C255.704,458.012 257.636,455.592 259.552,453.778C261.467,451.963 263.249,450.551 264.895,449.543C266.542,448.535 268.004,447.88 269.281,447.577C270.558,447.275 271.532,447.124 272.205,447.124C275.229,447.124 277.38,447.997 278.657,449.745C279.934,451.492 280.572,453.576 280.572,455.996C280.572,457.945 280.236,459.995 279.564,462.146C278.892,464.296 277.985,466.346 276.842,468.295ZM373.325,503.582C370.166,503.582 367.125,504.371 364.201,505.951C361.277,507.53 358.69,509.614 356.438,512.202C354.186,514.789 352.388,517.713 351.044,520.973C349.7,524.233 349.028,527.576 349.028,531.004C349.028,532.281 349.129,533.676 349.33,535.188C349.532,536.7 349.952,538.112 350.591,539.422C351.229,540.733 352.153,541.825 353.363,542.699C354.573,543.573 356.186,544.01 358.202,544.01C361.294,544.01 364.302,543.186 367.225,541.54C370.149,539.893 372.754,537.742 375.039,535.087C377.324,532.432 379.139,529.425 380.483,526.064C381.827,522.704 382.499,519.309 382.499,515.881C382.499,514.537 382.415,513.143 382.247,511.698C382.079,510.252 381.676,508.925 381.038,507.715C380.399,506.505 379.475,505.514 378.265,504.741C377.055,503.968 375.409,503.582 373.325,503.582ZM686.97,471.925C686.97,470.379 687.255,468.783 687.826,467.136C688.398,465.489 689.255,463.994 690.397,462.65C691.54,461.305 692.968,460.196 694.682,459.323C696.396,458.449 698.429,458.012 700.782,458.012C704.68,458.012 707.402,458.768 708.948,460.28C710.494,461.793 711.267,463.691 711.267,465.977C711.267,467.254 711.015,468.665 710.51,470.211C710.006,471.757 709.25,473.185 708.242,474.496C707.234,475.806 705.923,476.899 704.31,477.772C702.697,478.646 700.782,479.083 698.564,479.083C694.396,479.083 691.473,478.428 689.792,477.117C688.112,475.806 687.171,474.076 686.97,471.925Z" style="fill:white;"/>
</svg>
