<svg xmlns="http://www.w3.org/2000/svg" xml:space="preserve" fill-rule="evenodd" stroke-linejoin="round" stroke-miterlimit="2" clip-rule="evenodd" viewBox="0 0 512 512"><path fill="url(#a)" d="M352.002 416a3.193 3.193 0 0 1 2.219 5.493C336.983 437.91 313.661 448 288 448c-52.984 0-96-43.016-96-96s43.016-96 96-96c25.661 0 48.983 10.09 66.213 26.514a3.184 3.184 0 0 1-2.211 5.475L352 288c-35.323 0-64 28.677-64 64s28.677 64 64 64h.002Z" transform="rotate(-45 288.032 351.986)"/><path fill="url(#b)" d="M156.867 82.183a7.659 7.659 0 0 0 10.499 3.411C193.911 71.821 224.05 64 256 64c87.883 0 162.055 59.174 184.811 139.816a5.145 5.145 0 0 1-8.588 4.998c-28.896-28.428-68.525-45.983-112.223-45.983-2.24 0-4.47.046-6.688.138a3.828 3.828 0 0 0-2.587 6.501c5.746 5.781 9.294 13.744 9.294 22.53 0 17.661-14.339 32-32 32s-32-14.339-32-32c0-3.329.51-6.54 1.455-9.56a3.755 3.755 0 0 0-5.142-4.545C197.797 203.354 160 258.713 160 322.831c0 41.208 15.612 78.799 41.24 107.174a5.16 5.16 0 0 1-5.384 8.384C119.311 413.116 64 340.966 64 256c0-47.161 17.04-90.374 45.295-123.811a7.736 7.736 0 0 0-1.046-11.065C100.783 115.292 96 106.2 96 96c0-17.661 14.339-32 32-32 12.714 0 23.706 7.431 28.867 18.183ZM368 128c8.831 0 16 7.178 16 16.019 0 8.841-7.169 16.019-16 16.019s-16-7.178-16-16.019c0-8.841 7.169-16.019 16-16.019Z" transform="translate(1.393 2.183)"/><defs><linearGradient id="a" x1="0" x2="1" y1="0" y2="0" gradientTransform="matrix(167.968 0 0 192 192 352)" gradientUnits="userSpaceOnUse"><stop offset="0" stop-color="#47749E"/><stop offset="1" stop-color="#CAD9C9"/></linearGradient><linearGradient id="b" x1="0" x2="1" y1="0" y2="0" gradientTransform="matrix(381.215 0 0 379.633 64 253.816)" gradientUnits="userSpaceOnUse"><stop offset="0" stop-color="#47749E"/><stop offset="1" stop-color="#C08BAE"/></linearGradient></defs></svg>
