<?xml version="1.0" encoding="UTF-8" standalone="no"?>
<!DOCTYPE svg PUBLIC "-//W3C//DTD SVG 1.1//EN" "http://www.w3.org/Graphics/SVG/1.1/DTD/svg11.dtd">
<svg width="100%" height="100%" viewBox="0 0 512 512" version="1.1" xmlns="http://www.w3.org/2000/svg" xmlns:xlink="http://www.w3.org/1999/xlink" xml:space="preserve" xmlns:serif="http://www.serif.com/" style="fill-rule:evenodd;clip-rule:evenodd;stroke-linejoin:round;stroke-miterlimit:2;">
    <g transform="matrix(0.707107,-0.707107,0.707107,0.707107,-164.529,306.764)">
        <path d="M359.968,415.508C342.372,435.429 316.643,448 288,448C235.016,448 192,404.984 192,352C192,299.016 235.016,256 288,256C316.643,256 342.372,268.571 359.968,288.492C357.357,288.167 354.698,288 352,288C316.677,288 288,316.677 288,352C288,387.323 316.677,416 352,416C354.698,416 357.357,415.833 359.968,415.508Z" style="fill:rgb(93,161,193);"/>
    </g>
    <g transform="matrix(1,0,0,1,32,0)">
        <circle cx="96" cy="96" r="32" style="fill:rgb(93,161,193);"/>
    </g>
    <g transform="matrix(1,0,0,1,192.019,96)">
        <circle cx="96" cy="96" r="32" style="fill:rgb(93,161,193);"/>
    </g>
    <path d="M215.131,443.633C128.769,424.88 64,347.944 64,256C64,150.032 150.032,64 256,64C350.809,64 429.66,132.868 445.215,223.264C415.891,186.446 370.682,162.831 320,162.831C231.694,162.831 160,234.524 160,322.831C160,371.035 181.363,414.289 215.131,443.633ZM368,128C376.831,128 384,135.178 384,144.019C384,152.86 376.831,160.038 368,160.038C359.169,160.038 352,152.86 352,144.019C352,135.178 359.169,128 368,128Z" style="fill:rgb(93,161,193);"/>
</svg>
